<svg height="166" viewBox="0 0 216 166" width="216" xmlns="http://www.w3.org/2000/svg" xmlns:xlink="http://www.w3.org/1999/xlink"><linearGradient id="a" x1="49.990037%" x2="49.990037%" y1="100.00609%" y2="-.00758%"><stop offset="0" stop-color="#808080" stop-opacity=".25"/><stop offset=".54" stop-color="#808080" stop-opacity=".12"/><stop offset="1" stop-color="#808080" stop-opacity=".1"/></linearGradient><g fill="none"><path d="m211.681519 37.7578366c-2.205964-4.286258-5.098758-8.1824637-8.563613-11.5340391l-118.790288-.9895052 97.804373-11.612359c-6.399528-2.1412426-13.09564-3.2641369-19.843591-3.327641-9.415581-6.42796319-21.516962-10.28474109-34.716731-10.28474109-11.843499 0-22.794914 3.11178366-31.7233836 8.3916916-7.5874799-3.30471807-16.2370541-5.17866513-25.4272267-5.17866513-26.393809 0-48.3864212 15.45385502-53.3205754 35.94883772z" fill="#387ed1" opacity=".1"/><path d="m215.857307 54.946191c-.008177-5.6157501-1.273109-11.1584756-3.702048-16.2217721l-205.87820491 18.2695512c-2.08969335 3.1856612-3.71386692 6.6533521-4.82336019 10.2981128l63.7543153 8.0344764-65.2080092 5.8568009c1.96181818 23.2017948 25.4883544 41.5210128 54.2279402 41.5210128 14.46626 0 27.6106329-4.641887 37.3509551-12.212175 9.7708857 7.713556 23.0413347 12.456686 37.6642347 12.456686 21.694615 0 40.420713-10.443291 49.140967-25.5418414 17.493993-4.695374 31.083452-16.481565 35.73489-31.2267204l-80.625569-10.5712773h82.363889c0-.2215881 0-.4412658 0-.6628539z" fill="#387ed1" opacity=".1"/><ellipse cx="95.508262" cy="163.354315" fill="#387ed1" opacity=".1" rx="55.393188" ry="2.471853"/><path d="m128.385432 159.006605v1.493809h-44.1743388v-1.213003c5.5093873-2.041161 9.2453564-7.201751 9.4641122-13.073023.2187558-5.871271-3.1228346-11.295562-8.4650558-13.741039h42.8753744c-5.217233 2.388773-8.53798 7.626365-8.473126 13.364095.064854 5.737731 3.503139 10.898925 8.773034 13.169161z" fill="#c8cad7"/><path d="m128.085524 132.473349c-3.990775 1.832286-6.939583 5.370155-8.023015 9.625707h-26.8274342c-1.083935-4.255295-4.0325841-7.792972-8.023015-9.625707z" fill="#000" opacity=".1"/><path d="m33.6202532 124.862946v8.385961c0 4.630426 3.3887687 8.38405 7.5702877 8.38405h129.9766631c4.181519 0 7.570287-3.753624 7.570287-8.38405v-8.385961z" fill="#c8cad7"/><path d="m128.385432 159.006605v1.493809h-44.1743388v-1.213003c1.2110206-.450642 2.3564589-1.060943 3.4059609-1.81473h38.0596549c.845632.606427 1.753705 1.12066 2.708723 1.533924z" fill="#000" opacity=".1"/><rect fill="#c8cad7" height="4.42603" rx="2.213015" width="73.370472" x="69.613027" y="157.93878"/><path d="m178.737491 32.9745915c-.005271-4.1769149-3.393369-7.5598838-7.570287-7.5588302h-129.9709324c-4.1791552-.0042186-7.5707465 3.3796762-7.5760184 7.5588302v93.5197005h145.1172378z" fill="#474157"/><path d="m174.787112 36.3518987v80.3581363c0 .988585-.391983 1.936827-1.091019 2.635863-.699036.699035-1.647277 1.091018-2.635863 1.091018h-129.7474337c-.9885858 0-1.9368273-.391983-2.6358631-1.091018-.6990358-.699036-1.0910188-1.647278-1.0910188-2.635863v-80.3581363c0-2.0582998 1.6685821-3.7268937 3.7268819-3.7268937h129.7378827c.990084-.0025251 1.940487.3890069 2.64148 1.088208.700993.699201 1.094953 1.6485982 1.094953 2.6386857z" fill="#4c4c78"/><circle cx="106.180783" cy="29.014661" fill="#fff" r="1.747871"/><circle cx="106.180783" cy="133.598481" fill="#fff" r="4.309505"/><path d="m66.5776525 34.4894131v85.9475029h-25.2648562c-.9885858 0-1.9368273-.391983-2.6358631-1.091018-.6990358-.699036-1.0915255-1.647278-1.0910188-2.635863v-80.3581363l.1356276-.506214.3629459-1.3562716z" fill="#fff"/><path d="m69.8193326 35.8456847v7.7364787h-32.2334178v-7.2302647l.1356272-.506214z" fill="#4c4c78"/><path d="m174.787112 36.3518987h-137.2011972c0-.9882548.3927133-1.9360054 1.0916941-2.634628.6989809-.6986225 1.6469327-1.09085 2.6351874-1.0903609h129.7378827c.989908-.0030282 1.940316.388078 2.641365 1.086976.701048.698898 1.095068 1.6481001 1.095068 2.6380129z" fill="#c8cad7"/><circle cx="41.312796" cy="34.489413" fill="#ededf4" r="1"/><circle cx="44.10748" cy="34.489413" fill="#ededf4" r="1"/><circle cx="46.902163" cy="34.489413" fill="#ededf4" r="1"/><g fill="#387ed1"><path d="m42.403544 39.251646h19.356479v1.782255h-19.356479z"/><path d="m42.403544 47.943245h19.356479v1.782255h-19.356479z" opacity=".5"/><path d="m42.403544 54.088493h19.356479v1.782255h-19.356479z" opacity=".5"/><path d="m42.403544 60.23374h19.356479v1.782255h-19.356479z" opacity=".5"/><path d="m42.403544 66.377077h19.356479v1.782255h-19.356479z" opacity=".5"/><path d="m42.403544 72.522325h19.356479v1.782255h-19.356479z" opacity=".5"/><path d="m42.403544 78.667572h19.356479v1.782255h-19.356479z" opacity=".5"/><path d="m42.403544 84.810909h19.356479v1.782255h-19.356479z" opacity=".5"/></g><path d="m82.425017 45.805685h85.771761v1h-85.771761z" fill="#dce0ed" opacity=".5"/><path d="m82.425017 52.459056h85.771761v1h-85.771761z" fill="#dce0ed" opacity=".5"/><path d="m82.425017 59.114338h85.771761v1h-85.771761z" fill="#dce0ed" opacity=".5"/><path d="m82.425017 65.76771h85.771761v1h-85.771761z" fill="#dce0ed" opacity=".5"/><path d="m82.425017 72.421082h85.771761v1h-85.771761z" fill="#dce0ed" opacity=".5"/><path d="m168.198688 72.7057077h-85.878734v-13.0851553l7.8759263 3.881611 8.1510012 1.1041197 7.1519445-2.1566628 8.628562-6.6915766 4.340069-2.506237 3.172911-.6112774 3.035374.1623706 4.993372 2.466122 6.785178 4.3228768 5.325754.6857768 4.223544-1.4556042 8.949482-7.3315074 4.569299-1.6294362 4.781334.7392636 3.894983 2.2483544z" fill="#387ed1" opacity=".5"/><path d="m97.2886076 64.6101036c-7.7326582 0-14.8807825-4.7297584-14.9686536-4.7908861l.2120368-.3171001c.110794.0744994 11.1099655 7.3525201 20.4567782 3.7058688 3.411691-1.327618 5.833878-3.3964097 8.187295-5.3945224 2.45084-2.0878942 4.766053-4.0611738 7.919862-4.9169621 3.62946-.9799539 7.574109-.0916916 10.578919 2.3763406 2.567364 2.1108171 7.682992 5.501496 13.087065 4.4871577 2.754569-.5157652 5.077423-2.52916 7.535904-4.6590794 4.706835-4.0879171 9.589413-8.307641 18.011668-2.2483544l-.223498.3094591c-8.185386-5.881634-12.943798-1.7593325-17.543659 2.2273418-2.498597 2.166214-4.859655 4.2025316-7.715467 4.7469505-5.558803 1.0410817-10.781403-2.4145454-13.400345-4.5673878-2.909298-2.3916226-6.735512-3.2474108-10.235075-2.3018412-3.073578.8328654-5.348676 2.7774914-7.772773 4.8367319-2.37061 2.0191254-4.82336 4.1089298-8.290449 5.4613809-1.864528.7087461-3.8450015 1.0631193-5.8396084 1.0449022z" fill="#387ed1"/><circle cx="123.697699" cy="52.602325" fill="#387ed1" r="2.126099"/><path d="m70.415328 98.8053395c-2.9054776-1.6733717-4.0115075-2.0878942-4.0115075-2.0898044l-.0592175-.0420253c-.3173606-.2434136-.5693954-.5617388-.7335328-.9264672 0-.0668585 0-.1337169 0-.1910242v.0191024c.047756-.8863521.6762255-1.6905638 1.2741312-2.3935328.5093978-.5998158 1.0187955-1.198995 1.5281933-1.7975374.1755761-.1818613.3098057-.3994958.3935098-.6380207.0311277-.1248797.0452636-.2533884.0420253-.3820483 0-.0534868 0-.1050633 0-.1566398 0-.4469966-.0210127-.8939931-.0362946-1.3371692-.0152819-.3915995-.1146145-.8825316-.506214-.9551208-.2024856-.0420253-.4699195.0305639-.5730725-.1432681-.037515-.0709882-.0470573-.1534602-.0267434-.2311393v.0171922c-.0007429-.0069845-.0007429-.0140281 0-.0210127.0753214-.3014096.1239026-.6088771.1451784-.9188262.0068724-.1572523-.0144774-.3144643-.063038-.4641887-.2273188-.6475719-1.0047871-.9130955-1.6924741-1.035351s-1.4594246-.2273188-1.8911393-.7640967c-.1183833-.178999-.2459014-.3517861-.3820483-.5176755-.2000252-.1762658-.443277-.2962436-.7048792-.3476639-.8531509-.2113566-1.7523837-.1327242-2.5559033.2234982-.3323821.1489989-.6666743.347664-1.0315305.3266514-.3648562-.0210127-.7029689-.2865363-1.0773763-.3495743-.6036364-.103153-1.1824396.3419333-1.4804373.8672498-.1767185.3117901-.2707533.6635985-.2731645 1.0219792v.0592175c-.0075346.3852801.1333558.7587079.3935097 1.042992.2597929.2712543.647572.4565477.7640967.8118527.0439356.1451783.0343844.3018182.0725892.4469965 0 .0191024.0114614.0362946.0171922.055397l-.0210127.0248332c-.6204997.7985838-.9566409 1.7814604-.9551208 2.7927733.0123211 2.0147267 1.3249668 3.790659 3.2474108 4.3935558v.1375374c.0262356.5803424-.2043399 1.1428069-.6303797 1.5377445l-4.1223015 1.6542693s-2.4833142-.2941772-3.3773073 3.3333716c-.1432976.601991-.1948188 1.222178-.1528193 1.839563.0324741.548239-.0439356 1.511001-.6800461 2.756479-1.0181588 1.994292-.7870195 6.569321 1.2951439 7.022048 1.9656387.427894 2.735466.250242 2.8156962.229229v.08023c-.0324741.859609-.3438435 8.263705-1.4766168 9.16916-.3151899.246421-.2559724.414522 0 .527227v.133717c-.0343844.542508-.2101266 2.603659-.9684925 3.778458-.8710702 1.354361-.7717377 9.186352-.7717377 9.186352l-.5998158 4.620874s.3686766 2.853901 0 3.352474c-.3304718.445087-.7640967 11.004903-.8634293 13.293372h-.0382048c-.368268.022224-.7016274.225387-.8901726.542509-.4928424.79084-2.1929574 2.248354-2.1929574 2.248354-.3686767.525317-1.7364097 1.02771-2.4584811 1.26458-.0966231.031042-.190022.071344-.2788952.120345-.2703627.147236-.4875572.375791-.6208286.653303-.0948708.165061-.1183262.361672-.0649482.544419.1910242.452727 4.0248792.764097 4.9952819.3171.7640967-.355305 3.7899195-.825224 5.0468585-1.008608.4691912-.059111.8387019-.428622.8978136-.897813.0243459-.158992-.0170298-.321047-.1146145-.448907-.2406905-.297998-.3648562-1.111761-.4202532-1.642808.1020142-.041782.1972845-.098429.2827158-.168101-.1031231-1.646491.1328886-3.296622.6934177-4.848193.924557-2.44511 1.2034522-6.976203.972313-9.921796 0 0 2.8214269-12.143406 5.043038-13.276179.0343843.042025 1.1117606 1.42504 1.249298 5.707802.1375374 4.34962 1.7096663 7.203521 1.7096663 7.203521s-.6934177 7.384994 0 10.149114l-.9111853 4.353441c-.0379994-.031192-.0743436-.064348-.1088837-.099333 0 0 .0267433.122256.0649482.31519l-.0191024.091692.0382048.009551c.103153.544419.2559724 1.493809.1910242 2.0516-.0362946.31901-.1241657.752635-.1910242 1.180529-.0955121.670495-.1222555 1.321887.2311392 1.463245.5730725.23305 3.9790334.55206 4.5578366-.191024.2646043-.310689.3297798-.744698.1681013-1.119402-.041986-.102499-.0986085-.198372-.1681013-.284626 0 0-.9035443-1.476617-.6475719-2.517698.0473828-.205182.007987-.420822-.1088838-.595996.1324867-1.648088.3975952-3.282817.7927503-4.888308.5730725-2.179586 1.7994477-6.95901.9016341-10.103268-.0343844-.122256-.0725892-.244511-.1146145-.362946-.5186508-1.715906-.6920034-3.517604-.5100345-5.300921-.3341431-1.522169-.3341431-3.098705 0-4.620874.5501496-2.534891.9379286-5.018205.9379286-5.018205s.3056387-3.352474.0382049-5.407894l-.0171922-.131807.1451783-.032474s-.7851093-3.488101-1.0640046-5.707802c-.0649482-.525317-.1509091-1.18817-.2445109-1.89687.2560894-.044006.5083661-.107873.7545455-.191024 2.498596-.861519 3.2837054-8.655305 3.2837054-8.655305v-2.471853s.8328653-3.776548-2.0821634-5.4594705zm-18.6114845 60.1726125-.1222555-.064949z" fill="url(#a)"/><path d="m68.9081473 143.774338c1.083107 3.115604-.1910242 8.172014-.7640967 10.42992-.3859178 1.632677-.6414217 3.293452-.7640966 4.966628-1.3182058.222501-2.6667639.191381-3.9733027-.091692l.9551209-4.649528c-.6762256-2.754568 0-10.114729 0-10.114729s-1.5281934-2.84626-1.6695513-7.180599c-.1337169-4.265569-1.1843498-5.644764-1.2187341-5.688699-2.1834062 1.134683-4.9303338 13.232244-4.9303338 13.232244.2254086 2.934131-.0458458 7.449942-.9551208 9.889321-.5480435 1.548486-.7786723 3.191472-.6781358 4.831001-.3151898.265523-.7545454.311369-1.2282854.23496-1.2894131-.208217-2.8347986-1.319977-2.8347986-1.319977s.4966629-13.180668.8576985-13.681151c.3610357-.500483 0-3.341013 0-3.341013l.5864442-4.605592s-.0897813-7.810979.7640967-9.16916c.7411737-1.170979.9111853-3.226399.9455696-3.765087 0-.085961 0-.133717 0-.133717l1.3066053-1.564488s12.6438895-.95512 13.5913694 0c.2330495.23305.3820483.764097.4622785 1.428861.2597928 2.047779-.0382049 5.388792-.0382049 5.388792s-.3820483 2.483314-.9207364 5.010564c-.3260542 1.517885-.3260542 3.087707 0 4.605592-.1764422 1.778666-.0044982 3.57467.506214 5.287549z" fill="#65617d"/><path d="m68.1173072 163.573993c-.5635212.744994-3.881611.429804-4.4470425.191024-.3457538-.143268-.3190104-.79084-.2254085-1.459424.0592174-.425984.1451783-.859609.1795627-1.174799.0916916-.813763-.2693441-2.462301-.2693441-2.462301s.7449942.79084.924557 0c.0846276-.30737.3324165-.542659.6437514-.611278.3870445-.117006.8032252-.091249 1.1728884.072589.5864442.254063 1.5644879.796571 1.3887457 1.528194-.2483315 1.037261.6322899 2.508147.6322899 2.508147.0683047.086385.1236472.182269.1642808.284626.1615421.375415.0980103.809796-.1642808 1.123222z" fill="#a27772"/><path d="m68.1173072 163.573993c-.5635212.744994-3.881611.429804-4.4470425.191024-.3457538-.143268-.3190104-.79084-.2254085-1.459424.3553049.166191.9551208.305638 1.9713693.212036.2361314-.022901.4734935-.030558.7106099-.022922.7183895.033693 1.4382233.019653 2.1547526-.042026.1607512.374886.0972536.808294-.1642808 1.121312z" fill="#000" opacity=".1"/><path d="m56.543153 144.677883c.2254086 2.934131-.0458458 7.449942-.9551208 9.889321-.5480435 1.548486-.7786723 3.191472-.6781358 4.831001-.3151898.265523-.7545454.311369-1.2282854.23496.2731646-1.910242 1.4326813-10.11091 2.1776755-16.592359.8462371-7.383084 4.8080783-12.462417 4.8080783-12.462417l.79084.86916c-2.1681242 1.132773-4.9150518 13.230334-4.9150518 13.230334z" fill="#000" opacity=".1"/><path d="m66.7629459 97.2217491-.5520598 2.7087227-2.6991715 4.5387342-3.3295512-1.42313s-4.5272727-4.7412198-1.6829229-5.4174454c.3409742-.072838.6630164-.2159679.9455696-.4202532.5577906-.4221634.7335328-1.0334407.7373533-1.6332566-.0224907-.6719883-.1796909-1.3326187-.4622785-1.9427157l5.8243268-1.8281013c-.2409304.7649708-.3815527 1.5579778-.4183429 2.3591484-.0439355 1.5855006.5444189 2.3686997 1.02771 2.7411968.1798942.1453546.3870974.2531782.6093671.3171001z" fill="#fbbebe"/><path d="m65.5442117 91.8043038c-.2409304.7649708-.3815527 1.5579778-.4183429 2.3591484-1.2071735 1.4326102-3.1620734 1.9908293-4.9437054 1.4116686-.0224907-.6719883-.1796909-1.3326187-.4622785-1.9427157z" fill="#000" opacity=".1"/><path d="m66.2109004 91.0593096c0 2.5435985-2.0620084 4.6055926-4.605607 4.6055926-2.5435985 0-4.6055926-2.0619941-4.6055926-4.6055926 0-2.5435986 2.0619941-4.605607 4.6055926-4.605607 1.2224127-.0030392 2.3956382.4812109 3.2600171 1.3455899.864379.8643789 1.3486291 2.0376044 1.3455899 3.2600171z" fill="#fbbebe"/><path d="m66.7629459 97.2217491-.5520598 2.7087227-2.6991715 4.5387342-3.3295512-1.42313s-4.5272727-4.7412198-1.6829229-5.4174454c.3409742-.072838.6630164-.2159679.9455696-.4202532-.513855 1.4116686 1.6065133 4.3477096 1.6065133 4.3477096.2464211.362946.8137629.135628.8137629.135628 1.3639125-.206306 3.8797008-4.1337633 4.2884925-4.787066.1798942.1453546.3870974.2531782.6093671.3171001z" fill="#000" opacity=".1"/><path d="m69.3704258 123.485662c-.8023015.191024-5.2378826 1.163337-6.9188953.918826-1.8510242-.271254-5.4518297-.450817-5.4518297-.450817s-2.29229.122255-2.9952589-.191024c0-.085961 0-.133717 0-.133717l1.3066053-1.564488s12.6438895-.955121 13.5913694 0c.2483314.225408.3820483.754545.4680092 1.42122z" fill="#000" opacity=".1"/><path d="m61.0513234 101.691715s-2.3820714-3.2989877-1.4842578-4.5845804l-4.0248792 1.6504488s-2.4221864-.2941772-3.2951668 3.3199996c-.1399129.601225-.1907586 1.21974-.1509091 1.835743.0324741.544419-.0420253 1.50336-.6628539 2.745017-.9933256 1.986651-.7640966 6.548308 1.26458 6.999125s2.7545685.225409 2.7545685.225409-.2712544 8.263705-1.4441427 9.211185c-1.1728884.94748 2.9933486.722071 2.9933486.722071s3.5988953.191025 5.4499195.452728 7.043061-.955121 7.043061-.955121-.7640967-3.47664-1.0391715-5.6887-.901634-6.922715-.901634-6.922715l4.6055926-6.23885s.8118527-3.770817-2.0324971-5.440368c-2.8443499-1.6695512-3.9159954-2.0821634-3.9159954-2.0821634s-2.8653625 4.6552594-4.34771 4.8806674c0 .003821-.5654316.23305-.8118527-.129896z" fill="#ff748e"/><path d="m55.7675949 103.00214s-.0439355 1.489989.2273188 2.076433 1.2626697 3.837676 1.2626697 3.837676h-2.2559954s1.2187342-1.308516 1.1289529-1.940806c-.0897814-.63229-.362946-3.973303-.362946-3.973303z" fill="#000" opacity=".1"/><path d="m62.4515305 114.242002s-4.9857307-1.218734-5.4499195-2.255995c-.4641887-1.037261-1.7459608-3.363936-1.7459608-3.363936l.5253164-.708699 2.4260069 1.910241s2.8901957 2.29229 4.244557 2.52916 0 1.889229 0 1.889229z" fill="#fbbebe"/><path d="m62.4515305 114.242002s-4.9857307-1.218734-5.4499195-2.255995c-.4641887-1.037261-1.7459608-3.363936-1.7459608-3.363936l.5253164-.708699 2.4260069 1.910241s2.8901957 2.29229 4.244557 2.52916 0 1.889229 0 1.889229z" fill="#000" opacity=".05"/><path d="m66.7629459 108.37565v2.704902h-.4355351c-2.1482386.000016-4.2611052.546969-6.1395167 1.589321l-.8137629.450817-.2196778.122256-1.4002071-3.151899 1.3104257-1.174798h.0668585c.3209206.030563 1.7058458.145178 2.29229-.051577s1.2512083-.79084 2.8921059-.370587c.8099424.206306 1.4995397 1.113671 2.2922899.830955z" fill="#fbbebe"/><path d="m71.1202071 103.452957.9035443 1.016249v2.460391s-.7640966 7.767043-3.2053855 8.624741c-2.4412888.857699-6.7909091-.496663-6.7909091-.496663s-1.1251323-2.979976-.5998158-3.161449c.5253164-.181473 4.6495282-1.268401 4.6495282-1.268401s-.0592175-4.555926.8443268-5.910288c0 0-.5864442-4.244557 1.4441427-4.334338 2.0305868-.089781 2.7545684 3.069758 2.7545684 3.069758z" fill="#000" opacity=".1"/><path d="m71.2520138 103.452957.9035443 1.016249v2.460391s-.7640967 7.767043-3.2072957 8.624741c-2.4431991.857699-6.7889989-.496663-6.7889989-.496663s-1.1251323-2.979976-.5998159-3.161449c.5253165-.181473 4.647618-1.268401 4.647618-1.268401s-.0573073-4.555926.846237-5.910288c0 0-.5883544-4.244557 1.4441427-4.334338 2.0324972-.089781 2.7545685 3.069758 2.7545685 3.069758z" fill="#ff748e"/><path d="m64.9482163 93.015397c.0401856-.2969166.0047032-.5991734-.103153-.8787112-.1164076-.2841713-.4101153-.4537993-.7144304-.4126122-.3820483.0897814-.5539701.592175-.9321979.7125202-.3190104.1012428-.6685846-.1241657-.8214039-.4221634-.1279065-.3106399-.1815425-.6468462-.1566398-.9818642 0-.3820484 0-.7545455 0-1.1327733 0-.410702-.0133717-.8538781-.2674339-1.1767089-.3151899-.4011507-1.0544534-.5730725-1.5472957-.5597008-.3289244.0034051-.644576.1302111-.8844419.3553049-.2439839.2456051-.5859077.3677708-.9302877.3323821-.3059501-.0469806-.5577825-.2653839-.6475719-.5616111-.000855-.0050581-.000855-.0102238 0-.0152819 1.0463956-1.3834607 2.7813574-2.061647 4.4885786-1.7545588 1.7072212.3070881 3.0970987 1.5473581 3.5957994 3.2087445.4987007 1.6613865.0216278 3.4620615-1.2342514 4.6585876.0762866-.4540577.1279387-.911912.1547295-1.3715535z" fill="#000" opacity=".1"/><path d="m58.5890219 88.715443c-.3060741-.0476081-.5581908-.2656148-.6494822-.561611-.0362946-.1451784-.0267434-.3018182-.0706789-.4450863-.1050633-.355305-.4832912-.5405984-.7373533-.8099425-.5081243-.5386881-.4756502-1.4269505-.1165248-2.0764327.292267-.5234062.8557883-.964672 1.446053-.8634292.3648561.0649482.680046.3247411 1.0506329.347664s.6819563-.1757422 1.0066973-.3247411c.7824506-.3544503 1.6621019-.4325817 2.4947756-.221588.2562873.0509156.4939587.1704115.687687.3457537.1314826.1651702.2539176.3373444.3667664.5157653.4202532.5367779 1.1747987.6418412 1.8452935.7640966.6704948.1222555 1.430771.3820484 1.6504488 1.0334408.1470886.4278941 0 .8920828-.0783199 1.3371691-.0291908.0912194-.0230549.1900756.0171921.2769851.1050633.173832.3667664.1012428.5730725.1413578.3820484.0802302.4775604.5730725.4909321.9551209.017829.443176.0299272.8888991.0362946 1.3371691.0112578.1658973-.0016112.3325504-.0382048.4947526-.0824044.2314445-.212572.4429668-.3820483.6208286l-1.4918988 1.7918066c-.6609436.7946606-1.3620023 1.7192175-1.2301956 2.7450173-.3132796.1394476-.6838665-.1298964-.7870196-.458458-.103153-.3285616-.0210126-.680046.0496663-1.0162486.1201385-.5813841.1986577-1.1705967.2349597-1.763153.040263-.2975439.0047831-.600437-.103153-.8806214-.117126-.2844697-.4115029-.4540309-.7163406-.4126122-.3820484.0897813-.5520599.5921749-.9302877.7125201-.3190104.1031531-.6685846-.1241657-.8214039-.4221634-.1270304-.3108859-.1806334-.646885-.1566398-.9818642v-1.1327733c0-.4107019-.0133717-.853878-.2674339-1.1767089-.3132796-.4011507-1.0544534-.5730725-1.5472957-.5597008-.3289244.0034051-.644576.1302112-.8844419.355305-.2466055.2489235-.5935288.371367-.9417491.332382z" fill="#7c5c5c"/><path d="m59.6281933 102.889436 1.4154891 5.807135s1.1136709-.005731-1.4154891-5.807135z" fill="#000" opacity=".1"/><path d="m64.4611047 101.917123s-1.8529344 3.033464-1.1289528 6.16817l.3438435.024834s-.6150978-1.451784.7851093-6.193004z" fill="#000" opacity=".1"/><path d="m65.6339931 119.076824s2.2731876-.752635 2.4393786.993326c0 0-.4298044-1.197722-2.4393786-.993326z" fill="#000" opacity=".1"/><path d="m59.064672 109.051876s-.450817 3.16145.3610357 4.42603c-1.2738367.448747-2.6258789.632702-3.9733026.540598l-.2712544-4.966628z" fill="#000" opacity=".1"/><path d="m59.3741312 113.12069-.2196778.122256-1.4002071-3.151899 1.3104257-1.174798h.0668585c-.0210127.152819-.3858688 2.867272.2426007 4.204441z" fill="#000" opacity=".1"/><path d="m59.064672 108.916249s-.450817 3.16145.3610357 4.426029c-1.2738367.448747-2.6258789.632703-3.9733026.540599l-1.5797699-4.966628z" fill="#ff748e"/><path d="m55.1582278 161.65229c-.0534594.463432-.4144943.831546-.8768009.893993-1.2244649.191024-4.1796087.649482-4.924603 1.004787-.9551208.452727-4.695374.135627-4.8768469-.31519-.0514039-.182905-.0280413-.378739.0649482-.544419.1765136-.363094.4929827-.638884.8768009-.764096.7067894-.23687 2.0401381-.735443 2.3992635-1.258849 0 0 1.6619103-1.455605 2.1356502-2.240714.1806713-.314611.5070899-.517636.86916-.540598.39542-.019103.8347756.181473 1.0162485 1.046812 0 0 2.1662141 1.235926 2.7526583.152819 0 0 .0897813 1.663821.4489067 2.120369.095979.127166.1372356.287379.1146145.445086z" fill="#a27772"/><path d="m55.1582278 161.65229c-.0534594.463432-.4144943.831546-.8768009.893993-1.2244649.191024-4.1796087.649482-4.924603 1.004787-.9551208.452727-4.695374.135627-4.8768469-.31519-.0514039-.182905-.0280413-.378739.0649482-.544419.1287366-.274644.3405765-.501854.6055466-.649482.6112773.404972 1.9675489.802302 4.9513464.336203 2.8462601-.445086 4.2541082-.880622 4.9417951-1.176709.0974894.128642.1388265.291234.1146145.450817z" fill="#000" opacity=".1"/><g fill="#000" opacity=".1" transform="translate(56.734177 85.76985)"><path d="m10.7451093 2.04777906c.0009203-.00761326.0009203-.01530964 0-.0229229.0893042-.33408455.1361558-.67809062.1394477-1.02388953-.0287975.27651146-.0753764.5508808-.1394477.82140391-.0171401.07415867-.0171401.15124985 0 .22540852z"/><path d="m8.11088608 6.2732336c.0708141.16285879.10847827.338192.11079401.51576525.02054174-.24481515-.01743444-.4910056-.11079401-.71825086-.11700641-.28475738-.41114988-.45496841-.71634063-.41452244-.38204833.08978135-.55205983.59408515-.93028768.71443038-.31901036.1012428-.66858458-.12607595-.82140391-.42407365-.12880358-.3103867-.18247385-.6468077-.15663982-.98186421 0-.38204833 0-.75454546 0-1.13086306 0-.41070196-.01337169-.85387802-.26743383-1.17670887-.31518988-.40306098-1.0544534-.57307249-1.54920599-.56161104-.32867134.0036527-.64385347.13122641-.88253164.35721519-.24433117.24490804-.58620916.36635546-.93028769.3304718-.30708397-.04541632-.56021377-.26429915-.64948216-.56161104-.03820484-.14517837-.02674339-.29990794-.07067894-.44508631-.1050633-.35530495-.48329114-.53868815-.73735328-.80803222-.23698821-.26274269-.37245863-.60141874-.38204834-.95512083-.03664882.42191739.1014602.84038773.38204834 1.15760645.25406214.26934407.63228998.45463751.73735328.80994246.04393555.14326812.0324741.29990794.07067894.4450863.09089232.29625661.34320801.51443547.64948216.56161105.34438003.03538875.68630378-.08677703.93028769-.33238205.23978682-.22256893.5534971-.34846134.8806214-.3533947.49475259-.01528194 1.23401611.1604603 1.54920599.56161104.25406214.32283084.26552359.76409667.26743383 1.17670886v1.13086307c-.02599311.33568472.02767748.67276224.15663981.98377445.15281934.2979977.50239356.52340621.82140392.42216341.38204833-.12034523.54441887-.62273878.93028768-.71443038.30460469-.04055899.59871065.1276133.71825087.41070195z"/><path d="m11.8224856 5.02966628c-.0828298.23180666-.2129299.44386991-.3820483.62273878-.4992098.5959954-.9965094 1.19262754-1.49189875 1.78989644-.62655926.75454545-1.29132336 1.62752589-1.24356732 2.5902877.0458458-.88253166.66094361-1.68483316 1.24356732-2.38589185l1.49189875-1.79180667c.1690717-.17817316.2991836-.38960495.3820483-.62082854.0367787-.16282168.0496487-.33013173.0382048-.49666283-.0010489.09859624-.0138748.196714-.0382048.29226697z"/><path d="m7.92941312 9.730771c-.02462744-.07881807-.04001255-.16023096-.0458458-.24260069-.01253982.14992228.00300825.30086814.0458458.44508631.10124281.32856158.47373993.59790568.78701956.45845798 0-.0668584-.01337169-.1337169-.01528193-.1910242-.30945915.1241658-.67813579-.1489988-.77173763-.4699194z"/></g><path d="m49.6662831 158.830863s.4718297.829045 2.1834062.097422" fill="#000" opacity=".1"/><path d="m64.1172612 159.029528s1.4766168 1.73641 3.335282.573073" fill="#000" opacity=".1"/><path d="m68.4114845 138.49061s-1.042992.651392-1.0773763 1.023889c-.0343844.372498.5386881-.271254.5386881-.271254z" fill="#000" opacity=".1"/><path d="m68.8221864 143.483982c-.3619505.302208-.8126936.477945-1.2836824.500483-.7793786.034384-.7144304 1.050633-.2043958.744994.5100345-.305639 1.4880782-1.245477 1.4880782-1.245477z" fill="#000" opacity=".1"/><path d="m69.0208516 144.135374s-.5004834 2.456571-.9073648 1.982831" fill="#000" opacity=".1"/><g fill="#dce0ed" opacity=".5"><path d="m90.004856 87.613234h12.607595v2.674338h-12.607595z"/><path d="m118.954568 87.613234h12.607595v2.674338h-12.607595z"/><path d="m147.904281 87.613234h12.607595v2.674338h-12.607595z"/></g><ellipse cx="181.994453" cy="153.065754" fill="#387ed1" opacity=".1" rx="5.144281" ry="1"/><ellipse cx="22.009804" cy="164.040092" fill="#387ed1" opacity=".1" rx="5.144281" ry="1"/><ellipse cx="170.735489" cy="162.380092" fill="#387ed1" rx="7.681082" ry="1.298964"/><path d="m173.910311 160.257814c.350696-.285679.605924-.671519.731622-1.10603.095512-.439356-.091691-.964672-.510034-1.125133-.46992-.179562-.972313.145179-1.354362.47565-.382048.330472-.815673.702969-1.314246.634201.520595-.47293.75544-1.183988.618918-1.873947-.021363-.140654-.080819-.272777-.171921-.382049-.261703-.278895-.733533-.16046-1.046813.059218-.993325.699148-1.27031 2.047779-1.276041 3.262693-.099333-.437446-.015282-.893994-.017192-1.33717-.001911-.443176-.126076-.95512-.504304-1.19008-.234722-.125358-.498108-.187254-.764097-.179563-.446996-.017192-.945569.026744-1.249298.353395-.382048.406881-.280805 1.086927.047756 1.528193.328562.441266.832866.725892 1.293234 1.035351.369983.220943.685876.521825.924557.880622.027196.050642.049581.103725.066858.15855h2.800414c.62579-.319032 1.205948-.72058 1.724949-1.193901z" fill="#387ed1"/><path d="m22.2447641 151.145961s1.0506329 1.373464-.4832911 3.438435c-1.5339241 2.064971-2.7985041 3.820483-2.29229 5.113717 0 0 2.3152129-3.849137 4.2025316-3.902624 1.8873188-.053487.6456617-2.334315-1.4269505-4.649528z" fill="#387ed1"/><path d="m22.2447641 151.145961c.0918956.133038.1645641.278375.2158573.431714 1.8376525 2.158574 2.8156962 4.173879 1.0487227 4.223545-1.6447181.047756-3.6179977 2.989528-4.0917377 3.732612.0155815.05757.0340709.114313.0553971.170011 0 0 2.3152128-3.849136 4.2025316-3.902623s.6418412-2.340046-1.430771-4.655259z" fill="#000" opacity=".1"/><path d="m24.1951208 152.895742c0 .483291-.0534867.874891-.1203452.874891s-.1203452-.382048-.1203452-.874891c0-.492842.0668584-.255972.1337169-.255972s.1069735-.227319.1069735.255972z" fill="#ffd037"/><path d="m24.8656157 153.472635c-.4240737.231139-.7946606.370587-.8252244.31137-.0305639-.059218.284626-.294178.7086996-.525317.4240737-.231139.2578826-.063038.2884465 0s.2521519-.017192-.1719217.213947z" fill="#ffd037"/><path d="m16.703153 151.145961s-1.0506329 1.373464.4832912 3.438435c1.533924 2.064971 2.798504 3.820483 2.29229 5.113717 0 0-2.3133027-3.849137-4.2025317-3.902624s-.6456616-2.334315 1.4269505-4.649528z" fill="#387ed1"/><path d="m16.703153 151.145961c-.0918956.133038-.164564.278375-.2158573.431714-1.8376524 2.158574-2.8156962 4.173879-1.0487226 4.223545 1.644718.047756 3.6179977 2.989528 4.0917376 3.732612-.015361.057864-.0345046.114656-.0573072.170011 0 0-2.3133027-3.849136-4.2025317-3.902623s-.6399309-2.340046 1.4326812-4.655259z" fill="#000" opacity=".1"/><path d="m14.7508861 152.895742c0 .483291.055397.874891.1222554.874891.0668585 0 .1203453-.382048.1203453-.874891 0-.492842-.0668585-.255972-.1337169-.255972-.0668585 0-.1088838-.227319-.1088838.255972z" fill="#ffd037"/><path d="m14.0823015 153.472635c.4240736.231139.7927503.370587.8252244.31137.0324741-.059218-.284626-.294178-.7086997-.525317-.4240736-.231139-.2578826-.063038-.2903567 0s-.2502417-.017192.173832.213947z" fill="#ffd037"/><path d="m15.0909091 159.524281s2.9341312-.091692 3.8204833-.720161c.8863521-.62847 4.513901-1.383015 4.7335788-.372497.2196778 1.010517 4.4088378 5.022025 1.0964787 5.048768-3.312359.026744-7.6963636-.515765-8.5788952-1.052543-.8825317-.536778-1.0716456-2.903567-1.0716456-2.903567z" fill="#a8a8a8"/><path d="m24.7930265 163.128907c-3.3123591.026743-7.6982739-.515765-8.5808056-1.052543-.6704948-.410702-.9398389-1.879678-1.02771-2.555904h-.0993325s.1910241 2.364879 1.0697353 2.903568c.8787112.538688 5.2665362 1.079286 8.5788953 1.052543.9551208 0 1.2855926-.347664 1.2684004-.851968-.1337169.309459-.498573.498573-1.2091829.504304z" fill="#000" opacity=".2"/><path d="m89.1127733 106.289666c0-3.904534 3.1767319-6.9036131 7.0831761-6.9036131h.055397v-1.7765247h-.055397c-4.8863982 0-8.8597009 3.7956498-8.8597009 8.6801378-.0002844 2.556717 1.1067911 4.988242 3.0353741 6.666744l1.2588492-1.25885c-1.5960886-1.34282-2.5175477-3.322069-2.5176985-5.407894z" fill="#387ed1"/><path d="m96.4289988 97.6114384v1.7765248c3.1262633.0208645 5.8689042 2.0893848 6.7481752 5.0895248s-.312921 6.221868-2.933349 7.926954c-2.6204276 1.705085-6.0489243 1.489992-8.4357007-.529229l-1.2626698 1.258849c2.9575783 2.585948 7.2653071 2.914267 10.5806285.806415 3.315322-2.107851 4.845649-6.147953 3.758783-9.923284-1.086865-3.77533-4.531088-6.3833279-8.4596876-6.4057546z" fill="#387ed1" opacity=".5"/><path d="m154.500345 99.2962716c3.904534 0 6.903614 3.1767314 6.903614 7.0831764v.055397h1.776524c0-.019103 0-.038205 0-.055397 0-4.884488-3.79565-8.8597016-8.680138-8.8597016-2.556826-.0007878-4.98855 1.1063783-6.666743 3.0353746l1.258849 1.258849c1.34282-1.596088 3.32207-2.5175476 5.407894-2.5176984z" fill="#387ed1" opacity=".5"/><path d="m163.178573 106.612497h-1.776525c-.020864 3.126263-2.089385 5.868904-5.089525 6.748175s-6.221868-.312921-7.926953-2.933349c-1.705086-2.620427-1.489993-6.048924.529229-8.4357l-1.253119-1.25885c-2.585948 2.957579-2.914267 7.265307-.806415 10.580629s6.147953 4.845649 9.923284 3.758783 6.383328-4.531088 6.405755-8.459688z" fill="#387ed1"/><path d="m128.750288 98.1310242-.353395 1.7688837c2.599839 1.0487231 4.261749 3.5969851 4.261749 6.5674111.001072 3.536132-2.606669 6.531046-6.109336 7.016393-3.502666.485348-6.8265-1.687657-7.786976-5.09085-.960477-3.403193.736842-6.993308 3.976427-8.4108137l-.787019-1.5950518c-4.020922 1.8100445-6.097617 6.3025055-4.871372 10.5381165 1.226244 4.23561 5.381794 6.923785 9.74781 6.30574 4.366015-.618045 7.612178-4.353991 7.614632-8.763534 0-3.833855-2.269367-7.104189-5.69252-8.3362948z" fill="#387ed1" opacity=".5"/><path d="m125.806605 99.2828999c.848453-.0002981 1.687894.1739624 2.466122.5119447l.353395-1.7669735c-.89962-.3462812-1.855554-.5230902-2.819517-.5215066-1.25155-.0000304-2.488778.2662991-3.629459.7812995l.794661 1.5912313c.893119-.3939044 1.858672-.5969048 2.834798-.5959954z" fill="#387ed1"/></g></svg>